<svg id="merck_on_728x90" xmlns="http://www.w3.org/2000/svg" width="728" height="90" viewBox="0 0 728 90"><defs><style>.cls-1{fill:none}.cls-2{fill:#503291}</style></defs><path class="cls-1" d="M0 0h728v90H0z"/><path class="cls-2" d="M695.09 51.88a3.33 3.33 0 002.28-1l.9-.9a2 2 0 011.11-.55h.76a4.69 4.69 0 011.34.38l3.89 1.62a5 5 0 001.74.44h.58a.33.33 0 00.31-.34v-1.42a2.53 2.53 0 00-1.56-2.35l-.85-.35a6.16 6.16 0 01-1.88-1.16 1.35 1.35 0 01.12-1.84l3.47-3.48a2.51 2.51 0 00.7-1.7 2.21 2.21 0 00-.07-.52 1.38 1.38 0 00-.27-.45 1.27 1.27 0 00-.91-.34h-.55a3.31 3.31 0 00-2.28 1L701 41.8l-3.14 3.2v-5a2.05 2.05 0 00-2.05-2h-.89a2 2 0 00-.72.08c-.14.08-.14.22-.14.35v13.14a.31.31 0 00.31.31zM678.6 50.17a7.34 7.34 0 01-2.18-1.35l-1.55-1.22a6.74 6.74 0 002-1.44 3.17 3.17 0 00.77-2.18 4.28 4.28 0 00-.73-2.36 7.17 7.17 0 00-1.91-1.93 9.68 9.68 0 00-2.59-1.3 9 9 0 00-2.81-.47h-5.64a.3.3 0 00-.3.3v13.21c0 .13 0 .27.13.34a2.26 2.26 0 00.79.11 3.21 3.21 0 001-.14 2.52 2.52 0 001.2-.89 3.72 3.72 0 00.66-2.36v-5.71a1.54 1.54 0 01.05-.39 2.12 2.12 0 01.1-.24c.43-.79 1.9-1.1 3.48-.7 2.11.53 2.73 2 2.51 2.61a2 2 0 01-1.95 1.1 4.38 4.38 0 01-1.4-.24 4.21 4.21 0 01-.55-.17 2 2 0 00-.49-.13c-.17 0-.24.13-.24.38v1.49a1.64 1.64 0 00.51 1.24l4.54 3.64a2.47 2.47 0 001.45.5h3c.22 0 .32-.14.32-.4v-1a.39.39 0 00-.22-.34M660.23 48.25h-4.05a4.16 4.16 0 01-1.61-.36 5.45 5.45 0 01-1.3-1 4.68 4.68 0 01-.87-1.42 4.52 4.52 0 01-.31-1.66 2.22 2.22 0 01.63-1.69 2 2 0 01.43-.32 2.07 2.07 0 01.58-.21 3.35 3.35 0 01.79-.09 3.29 3.29 0 01.79.09 4.1 4.1 0 011.34.54 7.21 7.21 0 011.75 1.6h-4.21c-.25 0-.38.1-.38.32a2.26 2.26 0 00.24 1.08 3 3 0 002.64 1.59h3.92a1.63 1.63 0 001.42-.55 1.77 1.77 0 00.34-1.17 5.41 5.41 0 00-.64-2.43 8.29 8.29 0 00-1.73-2.3 8.84 8.84 0 00-2.52-1.69 7.06 7.06 0 00-3-.66h-5.76a.3.3 0 00-.31.3V44a7.5 7.5 0 00.63 3 8.08 8.08 0 004.18 4.22 7.48 7.48 0 003 .65H662a.31.31 0 00.31-.31v-1.15a2.14 2.14 0 00-.57-1.58 2.08 2.08 0 00-1.57-.58M647.15 40a2.05 2.05 0 00-2-2h-2.18a.39.39 0 00-.28.11l-4.35 4.09a8.55 8.55 0 01-11.66-.2l-3.23-3a3.65 3.65 0 00-2.44-1h-2.6a.41.41 0 00-.41.41v11.5a2.05 2.05 0 002 2.05h1.33a.42.42 0 00.42-.42v-4.17a2 2 0 011.92-1.95c2 0 3.36 1.68 4.63 2.8 1.56 1.37 2.75 2.7 4.23 2.7s2.66-1.33 4.22-2.7c1.27-1.12 2.67-2.8 4.63-2.8a2 2 0 011.92 1.93v2.48a2.05 2.05 0 002.06 2.05h1.33a.41.41 0 00.41-.42V40M692.5 46h-2.12a1.44 1.44 0 00-1.51 1 2.2 2.2 0 01-.72 1.05 2 2 0 01-1.28.4 3 3 0 01-1.49-.42A5.53 5.53 0 01684 47a5.74 5.74 0 01-1-1.5 4 4 0 01-.38-1.65 2.34 2.34 0 01.62-1.68 2.13 2.13 0 011.57-.64 3.59 3.59 0 012.14.79 1.33 1.33 0 001.95-.21l1.43-1.42c.1-.09.12-.17.1-.24a.69.69 0 00-.17-.25 9.24 9.24 0 00-2.55-1.66 7.21 7.21 0 00-2.9-.6h-5.65c-.22 0-.33.12-.33.38v5.64a7.47 7.47 0 00.66 3.1 8.69 8.69 0 001.79 2.59 9 9 0 002.57 1.79 7.19 7.19 0 003 .66 6 6 0 002.3-.42 5.78 5.78 0 001.85-1.19 5.61 5.61 0 001.24-1.8 6.52 6.52 0 00.54-2.27c0-.26-.08-.38-.29-.38"/></svg>