<svg id="text_02" xmlns="http://www.w3.org/2000/svg" width="728" height="90" viewBox="0 0 728 90"><defs><style>.cls-1{fill:none}.cls-2{fill:#e61e50}</style></defs><path class="cls-1" d="M0 0h728v90H0z"/><path class="cls-2" d="M409.2 29.74l-2.74 10.18h-2.9l-1.84-6.64-1.72 6.64h-3l-2.7-10.18h2.7l1.57 7 1.88-7h2.62l1.78 7 1.64-7zM417.91 36.53h-5.64c.09 1.25.93 1.87 2.55 1.87a4.51 4.51 0 002.67-.89h.28v2a8.28 8.28 0 01-3.21.64c-3.06 0-4.78-1.41-4.78-4s1.68-4.15 4.36-4.15c2.5 0 3.77 1.29 3.77 3.67zm-2.46-1.44a1.36 1.36 0 00-1.51-1.55 1.51 1.51 0 00-1.68 1.55zM422.9 29.28l-2 4h-1.59l1.07-4zM427.3 39.92h-2.47V29.28h2.47zM432.08 39.92h-2.46V29.28h2.46zM446.91 39.92h-2.48v-3.81a4 4 0 00-.23-1.65c-.16-.29-.54-.43-1.11-.43a2.82 2.82 0 00-1.43.45v5.44h-2.46V29.28h2.46v3.81a4.3 4.3 0 012.61-1.09c1.7 0 2.64 1 2.64 2.88zM456.73 36.53h-5.63c.08 1.25.92 1.87 2.55 1.87a4.5 4.5 0 002.66-.89h.28v2a8.25 8.25 0 01-3.21.64c-3.05 0-4.78-1.41-4.78-4S450.28 32 453 32c2.51 0 3.77 1.29 3.77 3.67zm-2.45-1.44a1.38 1.38 0 00-1.52-1.55 1.52 1.52 0 00-1.68 1.55zM460.92 39.92h-2.46V29.28h2.46zM465.71 42.74h-2.46V32.25h2.46v.8a3.94 3.94 0 012.52-1c1.94 0 3 1.52 3 3.93a4.38 4.38 0 01-1 3 3.16 3.16 0 01-2.5 1.15 4.35 4.35 0 01-2.05-.53zm0-4.57a3 3 0 001.08.14c1.29 0 1.93-.75 1.93-2.28s-.49-2.14-1.59-2.14a2.71 2.71 0 00-1.42.42zM481.29 37.21l1.76-5h2.52l-4.26 10.49h-2.68l1.22-2.87-3-7.62h2.58zM486.23 36.09c0-2.58 1.59-4.08 4.21-4.08s4.21 1.58 4.21 4.08-1.54 4.07-4.21 4.07-4.21-1.55-4.21-4.07zm4.21-2.37c-1.1 0-1.66.8-1.66 2.38s.56 2.35 1.68 2.35 1.63-.78 1.63-2.35-.55-2.38-1.65-2.38zM504.06 39.92h-2.45v-.85a6.55 6.55 0 01-1.4.85 3.19 3.19 0 01-1.21.21c-1.71 0-2.64-1-2.64-2.88v-5h2.46v3.81a3.17 3.17 0 00.31 1.78 1.41 1.41 0 001 .31 2.7 2.7 0 001.44-.47v-5.43h2.45zM513.63 39.92h-2.46V29.28h2.46zM523.52 36.53h-5.63c.08 1.25.92 1.87 2.55 1.87a4.5 4.5 0 002.66-.89h.28v2a8.21 8.21 0 01-3.21.64c-3 0-4.77-1.41-4.77-4s1.68-4.15 4.35-4.15c2.51 0 3.77 1.29 3.77 3.67zm-2.45-1.44a1.37 1.37 0 00-1.51-1.55 1.51 1.51 0 00-1.68 1.55zM529.9 39.11a3.62 3.62 0 01-2.65 1 2.43 2.43 0 01-2.57-2.41 2.19 2.19 0 011-2 9.31 9.31 0 014.21-.84c0-.77-.56-1.12-2-1.12a7.54 7.54 0 00-2.3.54h-.22V32.4a13.36 13.36 0 013-.38c2.8 0 4 .84 4 2.68v5.22h-2.47zm0-2.79a8 8 0 00-2.21.38.86.86 0 00-.51.83c0 .7.38.94 1.31.94a2.13 2.13 0 001.41-.55zM542.07 39.92h-2.47v-.79a3.84 3.84 0 01-2.46 1c-1.88 0-3.08-1.55-3.08-4a4.26 4.26 0 011-3 3.18 3.18 0 012.5-1.13 4.53 4.53 0 012 .52v-3.24h2.47zM539.6 34a2.61 2.61 0 00-1.06-.21q-1.95 0-1.95 2.28c0 1.5.49 2.15 1.64 2.15a2.29 2.29 0 001.37-.45zM407.27 50.25l-2.38 7.67h-2.62l-1.57-5.18-1.54 5.18h-2.65l-2.35-7.67h2.59l1.3 5.29 1.64-5.29h2.19l1.56 5.29 1.29-5.29zM416.44 57.92H414v-3.81a4 4 0 00-.24-1.65c-.16-.29-.53-.43-1.11-.43a2.89 2.89 0 00-1.43.44v5.45h-2.46V47.28h2.46v3.81a4.3 4.3 0 012.57-1.09c1.71 0 2.65 1 2.65 2.88zM426.25 54.53h-5.63c.08 1.25.92 1.87 2.55 1.87a4.5 4.5 0 002.66-.89h.28v2a8.21 8.21 0 01-3.21.64c-3 0-4.78-1.41-4.78-4s1.69-4.15 4.36-4.15c2.51 0 3.77 1.29 3.77 3.67zm-2.45-1.44a1.37 1.37 0 00-1.51-1.55 1.52 1.52 0 00-1.69 1.55zM433.54 52.59h-.21l-.31-.06c-.23 0-.5 0-.78-.06a5.37 5.37 0 00-1.79.31v5.14H428v-7.67h2.47v1.12a3.88 3.88 0 012.53-1.15 3.33 3.33 0 01.57 0zM442.46 54.53h-5.63c.08 1.25.92 1.87 2.55 1.87a4.5 4.5 0 002.66-.89h.28v2a8.21 8.21 0 01-3.21.64c-3.05 0-4.77-1.41-4.77-4S436 50 438.69 50c2.51 0 3.77 1.29 3.77 3.67zM440 53.09a1.37 1.37 0 00-1.51-1.55 1.51 1.51 0 00-1.68 1.55zM448.42 54.09c0-2.58 1.58-4.08 4.2-4.08s4.22 1.58 4.22 4.08-1.54 4.07-4.22 4.07-4.2-1.55-4.2-4.07zm4.2-2.37c-1.09 0-1.65.8-1.65 2.38s.56 2.35 1.68 2.35 1.63-.78 1.63-2.35-.55-2.38-1.66-2.38zM463.52 57.85a7.7 7.7 0 01-1.94.23c-1.9 0-2.84-.67-2.84-2.58v-3.59h-1v-1.66h1v-2.2h2.46v2.2h2.32v1.66h-2.32v2.72a6.19 6.19 0 00.07 1.12c.09.37.38.65 1.1.65a2.13 2.13 0 00.94-.23h.21zM472.7 57.92h-2.48v-3.81a3.8 3.8 0 00-.24-1.65c-.15-.29-.53-.43-1.1-.43a2.87 2.87 0 00-1.43.44v5.45H465V47.28h2.47v3.81a4.25 4.25 0 012.6-1.05c1.71 0 2.65 1 2.65 2.88zM482.51 54.53h-5.63c.09 1.25.93 1.87 2.55 1.87a4.45 4.45 0 002.66-.89h.28v2a8.2 8.2 0 01-3.2.64c-3.06 0-4.78-1.41-4.78-4s1.68-4.15 4.36-4.15c2.5 0 3.76 1.29 3.76 3.67zm-2.45-1.44a1.37 1.37 0 00-1.51-1.55 1.51 1.51 0 00-1.68 1.55zM489.81 52.59h-.21l-.31-.06c-.24 0-.5 0-.79-.06a5.47 5.47 0 00-1.79.31v5.14h-2.46v-7.67h2.46v1.12a3.88 3.88 0 012.52-1.15 3.39 3.39 0 01.58 0zM490.88 55.5h.23a5.27 5.27 0 003 1c.95 0 1.43-.21 1.43-.63a.49.49 0 00-.31-.47 5.63 5.63 0 00-1.43-.32c-1.93-.29-2.9-1.11-2.9-2.46s1.55-2.62 3.95-2.62a7.8 7.8 0 012.88.54v1.94h-.21a4.85 4.85 0 00-2.67-.84c-.77 0-1.4.21-1.4.63a.49.49 0 00.28.47 6.86 6.86 0 001.58.37 4 4 0 012.21.87 2.06 2.06 0 01.56 1.47c0 1.58-1.53 2.64-4 2.64a8.2 8.2 0 01-3.21-.61zM509.46 49.08h-.18l-.34-.08a2.14 2.14 0 00-.65-.08c-.93 0-1.24.22-1.24 1.26v.07H509v1.66h-1.82v6h-2.47v-6h-1.05v-1.66h1.05V50c0-1.89 1-2.83 3-2.83a10.12 10.12 0 011.76.14zM509.84 54.09c0-2.58 1.58-4.08 4.2-4.08s4.22 1.58 4.22 4.08-1.55 4.07-4.22 4.07-4.2-1.55-4.2-4.07zm4.2-2.37c-1.09 0-1.65.8-1.65 2.38s.56 2.35 1.68 2.35 1.62-.78 1.62-2.35-.54-2.38-1.69-2.38zM522.48 57.92H520V47.28h2.46zM527.27 57.92h-2.47V47.28h2.47zM529 54.09c0-2.58 1.58-4.08 4.2-4.08s4.22 1.58 4.22 4.08-1.54 4.07-4.22 4.07-4.2-1.55-4.2-4.07zm4.2-2.37c-1.09 0-1.65.8-1.65 2.38s.56 2.35 1.68 2.35 1.63-.78 1.63-2.35-.52-2.38-1.63-2.38zM551.47 50.25l-2.39 7.67h-2.61l-1.57-5.18-1.54 5.18h-2.65l-2.35-7.67H541l1.3 5.29 1.64-5.29h2.18l1.57 5.29 1.29-5.29z"/></svg>