<svg id="text_01" xmlns="http://www.w3.org/2000/svg" width="728" height="90" viewBox="0 0 728 90"><defs><style>.cls-1{fill:none}.cls-2{fill:#e61e50}</style></defs><path class="cls-1" d="M0 0h728v90H0z"/><path class="cls-2" d="M405.83 39.92h-2.62V33.1l-1.88 4.43h-1.82l-1.88-4.43v6.82h-2.48V29.74h3.06l2.28 5.11 2.28-5.11h3.06zM410.82 31.16h-2.61v-1.88h2.61zm-.07 8.76h-2.47v-7.67h2.47zM419.68 34.74h-.35a3.29 3.29 0 00-2.22-1c-1.32 0-2.05.9-2.05 2.32s.69 2.26 2.09 2.26a2.93 2.93 0 002.18-.94h.35v2.1a6.14 6.14 0 01-2.6.6c-2.83 0-4.57-1.4-4.57-4S414.3 32 417 32a6.2 6.2 0 012.69.6zM426.86 34.59h-.21l-.3-.06a6.43 6.43 0 00-.79-.05 5.46 5.46 0 00-1.79.3v5.14h-2.47v-7.67h2.47v1.12a3.88 3.88 0 012.52-1.15 3.27 3.27 0 01.57 0zM427.7 36.09c0-2.58 1.58-4.08 4.2-4.08s4.22 1.58 4.22 4.08-1.54 4.07-4.22 4.07-4.2-1.55-4.2-4.07zm4.2-2.37c-1.09 0-1.65.8-1.65 2.38s.56 2.35 1.68 2.35 1.63-.78 1.63-2.35-.56-2.38-1.66-2.38zM440.44 32.25h1.91v1.66h-1.82v6h-2.47v-6H437v-1.66h1.05v-.2c0-1.95 1.21-2.84 3.81-2.84a12 12 0 011.32.1l1 .12 1.57-.15v10.64h-2.45V31a8.7 8.7 0 00-1.21-.11c-1.12 0-1.68.39-1.68 1.16zM455.75 39.92h-2.45v-.85a6.81 6.81 0 01-1.4.85 3.27 3.27 0 01-1.21.21c-1.71 0-2.65-1-2.65-2.88v-5h2.47v3.81a3.17 3.17 0 00.31 1.78 1.36 1.36 0 001 .31 2.7 2.7 0 001.45-.47v-5.43h2.45zM460.6 31.16H458v-1.88h2.6zm-.07 8.76h-2.46v-7.67h2.46zM470.32 39.92h-2.46v-.79a3.89 3.89 0 01-2.47 1c-1.88 0-3.08-1.55-3.08-4a4.26 4.26 0 011-3 3.18 3.18 0 012.5-1.13 4.57 4.57 0 012 .52v-3.24h2.46zM467.86 34a2.69 2.69 0 00-1.07-.21q-1.95 0-2 2.28c0 1.5.49 2.15 1.64 2.15a2.34 2.34 0 001.38-.45zM475.18 31.16h-2.61v-1.88h2.61zm-.07 8.76h-2.47v-7.67h2.47zM484 34.74h-.35a3.29 3.29 0 00-2.23-1c-1.31 0-2 .9-2 2.32s.68 2.26 2.08 2.26a3 3 0 002.19-.94h.31v2.1a6.14 6.14 0 01-2.6.6c-2.83 0-4.57-1.4-4.57-4s1.83-4.08 4.52-4.08a6.2 6.2 0 012.69.6zM485.14 37.5h.23a5.27 5.27 0 003 1c.95 0 1.43-.21 1.43-.64a.49.49 0 00-.31-.46 5.63 5.63 0 00-1.43-.32c-1.93-.29-2.9-1.11-2.9-2.47s1.55-2.61 3.95-2.61a7.76 7.76 0 012.88.54v1.94h-.21a4.85 4.85 0 00-2.67-.84c-.77 0-1.4.21-1.4.63a.49.49 0 00.28.47 6.86 6.86 0 001.58.37 4 4 0 012.21.87 2.06 2.06 0 01.56 1.47c0 1.58-1.52 2.64-4 2.64a8.2 8.2 0 01-3.21-.61zM503.67 39.85a7.7 7.7 0 01-1.94.23c-1.9 0-2.84-.67-2.84-2.58v-3.59h-1v-1.66h1v-2.2h2.47v2.2h2.31v1.66h-2.31v2.72a5.36 5.36 0 00.07 1.12c.08.37.37.65 1.09.65a2.1 2.1 0 00.94-.23h.21zM504.57 36.09c0-2.58 1.59-4.08 4.21-4.08s4.22 1.58 4.22 4.08-1.54 4.07-4.21 4.07-4.22-1.55-4.22-4.07zm4.21-2.37c-1.1 0-1.66.8-1.66 2.38s.56 2.35 1.68 2.35 1.63-.78 1.63-2.35-.55-2.38-1.65-2.38zM522 42.74h-2.47V32.25H522v.8a3.94 3.94 0 012.52-1c1.93 0 3 1.52 3 3.93a4.38 4.38 0 01-1 3 3.19 3.19 0 01-2.51 1.15 4.28 4.28 0 01-2-.53zm0-4.57a2.93 2.93 0 001.07.14c1.29 0 1.94-.75 1.94-2.28s-.49-2.14-1.6-2.14a2.68 2.68 0 00-1.41.42zM531.86 31.16h-2.6v-1.88h2.6zm-.07 8.76h-2.46v-7.67h2.46zM540.73 34.74h-.35a3.33 3.33 0 00-2.23-1c-1.32 0-2 .9-2 2.32s.69 2.26 2.09 2.26a3 3 0 002.19-.94h.35v2.1a6.18 6.18 0 01-2.61.6c-2.83 0-4.57-1.4-4.57-4S535.35 32 538 32a6.24 6.24 0 012.69.6zM550.5 39.92h-2.87l-2.15-3.34-.67.81v2.53h-2.46V29.28h2.46v6.36l2.65-3.39h2.84l-2.76 3.3zM561.18 39.11a3.62 3.62 0 01-2.65 1 2.44 2.44 0 01-2.53-2.39 2.2 2.2 0 011-2 9.3 9.3 0 014.2-.84c0-.77-.56-1.12-2-1.12a7.54 7.54 0 00-2.3.54h-.22v-1.9a13.28 13.28 0 013-.38c2.8 0 4 .84 4 2.68v5.22h-2.44zm0-2.79a8.08 8.08 0 00-2.22.38.86.86 0 00-.5.83c0 .7.38.94 1.3.94a2.15 2.15 0 001.42-.55zM394.49 55.5h.23a5.27 5.27 0 003 1c1 0 1.43-.21 1.43-.63a.49.49 0 00-.31-.47 5.51 5.51 0 00-1.43-.32c-1.93-.29-2.89-1.11-2.89-2.46s1.54-2.62 3.94-2.62a7.76 7.76 0 012.88.54v1.94h-.21a4.85 4.85 0 00-2.67-.84c-.77 0-1.4.21-1.4.63a.49.49 0 00.28.47 6.86 6.86 0 001.58.37 4 4 0 012.21.87 2.06 2.06 0 01.56 1.47c0 1.58-1.52 2.64-4 2.64a8.24 8.24 0 01-3.21-.61zM405.85 49.16h-2.61v-1.88h2.61zm-.07 8.76h-2.47v-7.67h2.47zM415.82 57.92h-2.48v-3.81a3.8 3.8 0 00-.24-1.65c-.15-.29-.53-.43-1.1-.43a2.84 2.84 0 00-1.43.44v5.45h-2.47v-7.67h2.47v.84a4.25 4.25 0 012.6-1.05c1.71 0 2.65 1 2.65 2.88zM425.54 57c0 2.58-1.29 3.78-4.28 3.78a12.66 12.66 0 01-2.91-.33v-1.88h.29a6.81 6.81 0 002.27.47c1.54 0 2.16-.4 2.16-1.87V57a3.31 3.31 0 01-2.19.78c-2.24 0-3.36-1.3-3.36-3.92a3.89 3.89 0 011-2.83A3.31 3.31 0 01421 50a3.88 3.88 0 012.06.54l.09-.33h2.39zm-2.47-5a2.62 2.62 0 00-1.07-.2c-1.3 0-1.94.7-1.94 2.12s.57 2 1.64 2a2.5 2.5 0 001.37-.42zM430.32 57.92h-2.47V47.28h2.47zM440.21 54.53h-5.63c.08 1.25.92 1.87 2.54 1.87a4.51 4.51 0 002.67-.89h.28v2a8.25 8.25 0 01-3.21.64c-3.05 0-4.78-1.41-4.78-4s1.68-4.15 4.36-4.15c2.51 0 3.77 1.29 3.77 3.67zm-2.45-1.44a1.38 1.38 0 00-1.52-1.55 1.52 1.52 0 00-1.68 1.55zM453.34 52.74H453a3.29 3.29 0 00-2.23-1c-1.32 0-2 .9-2 2.32s.68 2.26 2.08 2.26a3 3 0 002.19-.94h.35v2.1a6.15 6.15 0 01-2.61.6c-2.83 0-4.56-1.4-4.56-4S448 50 450.65 50a6.24 6.24 0 012.69.6zM462.52 54.53h-5.63c.09 1.25.93 1.87 2.55 1.87a4.48 4.48 0 002.66-.89h.28v2a8.21 8.21 0 01-3.21.64c-3.05 0-4.77-1.41-4.77-4s1.68-4.15 4.35-4.15c2.51 0 3.77 1.29 3.77 3.67zm-2.45-1.44a1.37 1.37 0 00-1.51-1.55 1.51 1.51 0 00-1.68 1.55zM466.72 57.92h-2.47V47.28h2.47zM471.51 57.92H469V47.28h2.47zM483.59 49.08h-.18l-.34-.08a2.24 2.24 0 00-.66-.08c-.92 0-1.23.22-1.23 1.26v.07h1.91v1.66h-1.82v6h-2.47v-6h-1.05v-1.66h1.05V50c0-1.89 1-2.83 3-2.83a10.21 10.21 0 011.76.14zM490.09 52.59h-.21l-.31-.06c-.24 0-.51 0-.79-.06a5.47 5.47 0 00-1.79.31v5.14h-2.46v-7.67H487v1.12a3.88 3.88 0 012.52-1.15 3.39 3.39 0 01.58 0zM490.92 54.09c0-2.58 1.59-4.08 4.21-4.08s4.21 1.58 4.21 4.08-1.54 4.07-4.21 4.07-4.21-1.55-4.21-4.07zm4.21-2.37c-1.1 0-1.66.8-1.66 2.38s.56 2.35 1.68 2.35 1.63-.78 1.63-2.35-.55-2.38-1.65-2.38zM508.61 57.92h-2.48v-3.83a3.91 3.91 0 00-.22-1.67c-.14-.27-.48-.39-1-.39a2.66 2.66 0 00-1.31.44v5.45h-2.5v-7.67h2.47v.84a4.11 4.11 0 012.49-1.09 2.32 2.32 0 012.26 1.33 4.6 4.6 0 012.8-1.33c1.69 0 2.53 1 2.53 2.88v5h-2.46v-3.79a4.27 4.27 0 00-.21-1.67c-.16-.27-.49-.39-1.05-.39a2.82 2.82 0 00-1.32.44zM525.62 57.85a7.61 7.61 0 01-1.93.23c-1.91 0-2.85-.67-2.85-2.58v-3.59h-1v-1.66h1v-2.2h2.47v2.2h2.31v1.66h-2.31v2.72a5.36 5.36 0 00.07 1.12c.08.37.38.65 1.09.65a2.07 2.07 0 00.94-.23h.21zM534.8 57.92h-2.48v-3.81a4 4 0 00-.23-1.65c-.16-.29-.54-.43-1.11-.43a2.89 2.89 0 00-1.43.44v5.45h-2.46V47.28h2.46v3.81a4.3 4.3 0 012.61-1.09c1.71 0 2.64 1 2.64 2.88zM544.62 54.53H539c.08 1.25.92 1.87 2.55 1.87a4.5 4.5 0 002.66-.89h.28v2a8.21 8.21 0 01-3.21.64c-3 0-4.78-1.41-4.78-4s1.67-4.15 4.35-4.15c2.51 0 3.77 1.29 3.77 3.67zm-2.45-1.44a1.38 1.38 0 00-1.52-1.55 1.52 1.52 0 00-1.65 1.55zM553.6 60.74h-2.46V50.25h2.46v.8a3.94 3.94 0 012.52-1c1.94 0 3 1.52 3 3.93a4.43 4.43 0 01-1 3 3.19 3.19 0 01-2.51 1.15 4.25 4.25 0 01-2-.54zm0-4.57a3 3 0 001.08.14c1.29 0 1.93-.75 1.93-2.28s-.49-2.14-1.59-2.14a2.74 2.74 0 00-1.42.42zM565.57 57.11a3.59 3.59 0 01-2.64 1 2.44 2.44 0 01-2.58-2.41 2.18 2.18 0 011-2 9.23 9.23 0 014.2-.84c0-.77-.56-1.12-2.05-1.12a7.43 7.43 0 00-2.29.54H561V50.4a13.36 13.36 0 013-.38c2.8 0 4 .84 4 2.68v5.22h-2.44zm0-2.79a8 8 0 00-2.21.38.85.85 0 00-.5.83c0 .7.37.94 1.3.94a2.13 2.13 0 001.41-.55zM576.89 52.74h-.35a3.31 3.31 0 00-2.23-1c-1.32 0-2 .9-2 2.32s.69 2.26 2.09 2.26a3 3 0 002.19-.94h.35v2.1a6.15 6.15 0 01-2.61.6c-2.83 0-4.57-1.4-4.57-4S571.51 50 574.2 50a6.24 6.24 0 012.69.6zM586.66 57.92h-2.87l-2.15-3.34-.67.81v2.53h-2.46V47.28H581v6.36l2.65-3.39h2.84l-2.76 3.3zM591.78 55.19h-2.41v-2.31c1.72-.42 2.58-1.15 2.58-2.17 0-.84-.56-1.26-1.7-1.26a4.25 4.25 0 00-2.24.76h-.26v-2.09a8.81 8.81 0 013.19-.59c2.24 0 3.67 1.09 3.67 2.7s-.9 2.66-2.83 3.39zm.2 2.73h-2.76v-1.8H592z"/></svg>