<svg id="cta" xmlns="http://www.w3.org/2000/svg" width="728" height="90" viewBox="0 0 728 90"><defs><style>.cls-1{fill:none}.cls-2{fill:#2dbecd}.cls-3{fill:#503291}</style></defs><path class="cls-1" d="M0 0h728v90H0z"/><rect class="cls-2" x="425" y="22.5" width="100" height="45" rx="6"/><path class="cls-3" d="M445.33 37.21c0 2.16-1.32 3.33-3.87 3.33s-3.88-1.15-3.88-3.33v-5.57h2.26v5.45c0 1.21.48 1.79 1.62 1.79s1.62-.53 1.62-1.79v-5.45h2.25zM453.64 40.36h-2.13V37.1a3.35 3.35 0 00-.2-1.41c-.13-.26-.46-.38-.95-.38a2.35 2.35 0 00-1.22.39v4.66H447v-6.57h2.11v.72a3.66 3.66 0 012.23-.9c1.46 0 2.27.89 2.27 2.47zM457.38 40.36h-2.11v-9.11h2.11zM465.55 37.46h-4.82c.07 1.07.79 1.6 2.18 1.6a3.88 3.88 0 002.28-.76h.24V40a7 7 0 01-2.74.55c-2.62 0-4.09-1.21-4.09-3.43s1.44-3.52 3.73-3.52 3.22 1.1 3.22 3.14zm-2.1-1.23c0-.88-.44-1.34-1.29-1.34a1.3 1.3 0 00-1.44 1.34zM470.73 39.67a3.13 3.13 0 01-2.27.87 2.09 2.09 0 01-2.21-2.06 1.89 1.89 0 01.89-1.72 8.08 8.08 0 013.6-.72c0-.66-.48-1-1.75-1a6.4 6.4 0 00-2 .47h-.19v-1.6a11.6 11.6 0 012.59-.32c2.4 0 3.39.72 3.39 2.29v4.47h-2.08zm0-2.39a6.6 6.6 0 00-1.9.32.74.74 0 00-.43.71c0 .6.32.81 1.11.81a1.89 1.89 0 001.22-.47zM474 38.29h.19a4.57 4.57 0 002.59.85c.81 0 1.22-.18 1.22-.54a.43.43 0 00-.26-.4 5.11 5.11 0 00-1.23-.27c-1.65-.25-2.48-1-2.48-2.11s1.31-2.21 3.36-2.21a6.66 6.66 0 012.47.47v1.65h-.18a4.15 4.15 0 00-2.29-.72c-.66 0-1.2.18-1.2.54a.43.43 0 00.24.41 6.55 6.55 0 001.36.31 3.47 3.47 0 011.89.75 1.78 1.78 0 01.48 1.26c0 1.35-1.31 2.26-3.42 2.26A7 7 0 01474 40zM487.88 40.36h-2.12V37.1a3.35 3.35 0 00-.2-1.41c-.14-.26-.46-.38-.95-.38a2.35 2.35 0 00-1.22.39v4.66h-2.11v-9.11h2.11v3.26a3.64 3.64 0 012.23-.9c1.46 0 2.26.89 2.26 2.47zM497.53 40.3a6.45 6.45 0 01-1.65.19c-1.63 0-2.44-.57-2.44-2.2v-3.07h-.86v-1.43h.86v-1.88h2.11v1.88h2v1.43h-2v2.32a5.72 5.72 0 00.06 1c.08.32.33.56.94.56a1.72 1.72 0 00.8-.2h.18zM505.1 40.36H503V37.1a3.35 3.35 0 00-.2-1.41c-.14-.26-.46-.38-.95-.38a2.35 2.35 0 00-1.22.39v4.66h-2.13v-9.11h2.11v3.26a3.64 3.64 0 012.23-.9c1.46 0 2.26.89 2.26 2.47zM513.22 37.46h-4.83c.08 1.07.8 1.6 2.19 1.6a3.9 3.9 0 002.28-.76h.24V40a7 7 0 01-2.75.55c-2.62 0-4.09-1.21-4.09-3.43s1.44-3.52 3.73-3.52 3.23 1.1 3.23 3.14zm-2.1-1.23c0-.88-.45-1.34-1.3-1.34a1.3 1.3 0 00-1.44 1.34zM445 56.36h-5.11v-1.54h1.43v-5.63h-1.43v-1.55H445v1.55h-1.43v5.63H445zM452.84 56.36h-2.12v-3.28a3.15 3.15 0 00-.2-1.43c-.12-.23-.4-.34-.87-.34a2.21 2.21 0 00-1.13.39v4.66h-2.11v-6.57h2.11v.72a3.55 3.55 0 012.14-.9 2 2 0 011.93 1.14 4 4 0 012.4-1.14c1.45 0 2.17.82 2.17 2.47v4.28h-2.11v-3.28a3.65 3.65 0 00-.18-1.43c-.14-.23-.42-.34-.9-.34a2.3 2.3 0 00-1.13.39zM460.92 58.77h-2.11v-9h2.11v.68a3.43 3.43 0 012.16-.86c1.65 0 2.59 1.31 2.59 3.37a3.73 3.73 0 01-.86 2.53 2.72 2.72 0 01-2.14 1 3.69 3.69 0 01-1.75-.46zm0-3.91a2.43 2.43 0 00.92.12c1.1 0 1.66-.64 1.66-1.95s-.42-1.84-1.37-1.84a2.3 2.3 0 00-1.21.36zM466.41 53.08a3.61 3.61 0 113.6 3.49 3.25 3.25 0 01-3.6-3.49zm3.6-2c-.93 0-1.41.68-1.41 2s.48 2 1.44 2 1.39-.67 1.39-2-.43-2.03-1.43-2.03zM474.39 54.29h.2a4.55 4.55 0 002.59.85c.81 0 1.22-.18 1.22-.54a.43.43 0 00-.26-.4 5.11 5.11 0 00-1.23-.27c-1.65-.25-2.48-1-2.48-2.11s1.31-2.21 3.36-2.21a6.66 6.66 0 012.47.47v1.65h-.18a4.15 4.15 0 00-2.29-.72c-.66 0-1.2.18-1.2.54a.43.43 0 00.24.41 6.57 6.57 0 001.35.31 3.51 3.51 0 011.9.75 1.78 1.78 0 01.48 1.26c0 1.35-1.31 2.26-3.42 2.26a7.09 7.09 0 01-2.75-.52zM481.21 54.29h.19a4.57 4.57 0 002.59.85q1.23 0 1.23-.54a.44.44 0 00-.27-.4 5 5 0 00-1.22-.27c-1.66-.25-2.48-1-2.48-2.11s1.3-2.21 3.35-2.21a6.71 6.71 0 012.48.47v1.65h-.19a4.12 4.12 0 00-2.29-.73c-.66 0-1.19.18-1.19.54a.44.44 0 00.23.41 6.74 6.74 0 001.36.31 3.44 3.44 0 011.89.75 1.74 1.74 0 01.49 1.26c0 1.35-1.31 2.26-3.42 2.26a7.09 7.09 0 01-2.75-.52zM490.64 48.86h-2.23v-1.61h2.23zm-.06 7.5h-2.11v-6.57h2.11zM494.29 56.36h-2v-9.11h2.11v3.22a3.43 3.43 0 012.16-.86c1.66 0 2.59 1.27 2.59 3.37a3.65 3.65 0 01-.86 2.53 2.72 2.72 0 01-2.13 1 3.42 3.42 0 01-1.76-.46zm.09-1.51a2.55 2.55 0 00.93.15c1.1 0 1.65-.66 1.65-2s-.32-1.84-1.36-1.84a2.36 2.36 0 00-1.22.36zM502.47 56.36h-2.11v-9.11h2.11zM510.64 53.46h-4.82c.07 1.07.79 1.6 2.18 1.6a3.88 3.88 0 002.28-.76h.24V56a7 7 0 01-2.74.55c-2.62 0-4.09-1.21-4.09-3.43s1.43-3.52 3.73-3.52c2.14 0 3.22 1.1 3.22 3.14zm-2.1-1.23c0-.88-.44-1.34-1.29-1.34a1.3 1.3 0 00-1.44 1.34z"/></svg>