<svg id="sigma-aldrich_on_728x90" xmlns="http://www.w3.org/2000/svg" width="728" height="90" viewBox="0 0 728 90"><defs><clipPath id="clip-path"><path class="cls-1" d="M0 0h728v90H0z"/></clipPath><style>.cls-1{fill:none}.cls-2{clip-path:url(#clip-path)}.cls-3{fill:#e61e50}.cls-4{fill:#ffc832}</style></defs><path class="cls-1" d="M0 0h728v90H0z"/><g class="cls-2"><path class="cls-3" d="M265 150.59c5.71 10.14 1.2 16-10 12.92L-29.73 87.13C-41 84.1-45.68 73.21-40.2 63L76.18-148.23c5.48-10.26 14.64-10.37 20.35-.23z"/></g><path class="cls-4" d="M76.45 47.31a2 2 0 01-2 2c-1.67 0-1.93-.88-1.93-1.77a1.62 1.62 0 011-1.56l3-1.4zM74.78 37C71.94 37 70 38.87 70 41.32v.23a.73.73 0 00.73.73h1.37a.75.75 0 00.73-.73v-.23a1.66 1.66 0 011.8-1.7 1.61 1.61 0 011.82 1.59c0 .76-.34 1-1.33 1.46L71.94 44a3.89 3.89 0 00-2.55 4 3.54 3.54 0 003.75 3.73 4 4 0 003.31-1.59v.57a.75.75 0 00.75.73h1.41a.75.75 0 00.75-.73v-9.16A4.23 4.23 0 0074.78 37M63.9 37a3.69 3.69 0 00-3.39 2 3.67 3.67 0 00-3.17-2 3.42 3.42 0 00-3.23 2v-.83a.75.75 0 00-.76-.73h-1.43a.75.75 0 00-.75.73v12.49a.75.75 0 00.75.73h1.43a.75.75 0 00.76-.73v-8.95A2 2 0 0156 39.62a1.84 1.84 0 011.85 2.09v8.95a.75.75 0 00.76.73H60a.75.75 0 00.75-.73v-8.95a1.89 1.89 0 011.78-2.09 1.83 1.83 0 011.84 2.09v8.95a.75.75 0 00.76.73h1.43a.75.75 0 00.75-.73v-9.79A3.67 3.67 0 0063.9 37M25.41 32.36c-3.28 0-5.41 2-5.41 5.23a4.58 4.58 0 002 4.14l4.12 2.68c.91.6 1.48 1 1.48 2v.38a2 2 0 01-2.19 2.32 2.17 2.17 0 01-2.18-2.32v-1.02a.75.75 0 00-.76-.73h-1.71a.75.75 0 00-.76.73v1.06c0 3.34 2.29 5.08 5.36 5.08s5.42-1.79 5.42-5.08c0-2.42-.34-3.43-2.32-4.71l-3.38-2.18c-1.31-.84-1.85-1.2-1.85-2.24v-.26a2.05 2.05 0 012.18-2.32 2.1 2.1 0 012.19 2.32V38a.75.75 0 00.76.73H30a.75.75 0 00.76-.73v-.57c0-3.36-2.27-5.08-5.37-5.08M45.49 46.71a2 2 0 01-1.88 2.08 1.83 1.83 0 01-1.84-2.08V42a1.84 1.84 0 011.84-2.09A2 2 0 0145.49 42zm2.19-9.25h-1.44a.75.75 0 00-.75.73V39a3.2 3.2 0 00-3.07-2 3.7 3.7 0 00-3.6 3.59v6.93a3.73 3.73 0 003.6 3.85 3.18 3.18 0 003.07-2V53a1.89 1.89 0 01-1.85 2 1.85 1.85 0 01-1.82-2 .77.77 0 00-.78-.73h-1.38a.76.76 0 00-.76.73 4.77 4.77 0 109.53-.2V38.19a.75.75 0 00-.75-.73M35.34 32.93H33.9a.75.75 0 00-.75.73v1.1a.76.76 0 00.75.73h1.44a.76.76 0 00.75-.73v-1.1a.75.75 0 00-.75-.73M35.34 37.46H33.9a.75.75 0 00-.75.73v12.47a.75.75 0 00.75.73h1.44a.75.75 0 00.75-.73V38.19a.75.75 0 00-.75-.73M90 43.14h-7.54a.75.75 0 00-.73.76v1a.75.75 0 00.73.75H90a.75.75 0 00.73-.75v-1a.75.75 0 00-.73-.76M137.51 37.46h-1.44a.75.75 0 00-.75.73v12.47a.75.75 0 00.75.73h1.44a.75.75 0 00.75-.73V38.19a.75.75 0 00-.75-.73M130.58 37a3.93 3.93 0 00-3.18 1.8v-.63a.75.75 0 00-.76-.73h-1.42a.75.75 0 00-.76.73v12.49a.75.75 0 00.76.73h1.42a.75.75 0 00.76-.73v-9.27a1.68 1.68 0 011.6-1.77c1.22 0 1.51.76 1.51 1.77v.37a.75.75 0 00.75.73h1.43a.75.75 0 00.76-.73v-1.64a3 3 0 00-2.89-3.1M137.51 32.93h-1.44a.75.75 0 00-.75.73v1.1a.76.76 0 00.75.73h1.44a.76.76 0 00.75-.73v-1.1a.75.75 0 00-.75-.73M158.49 37a3.42 3.42 0 00-3.23 2v-5.34a.75.75 0 00-.75-.73h-1.44a.75.75 0 00-.75.73v17a.75.75 0 00.75.73h1.44a.75.75 0 00.75-.73v-8.95a2 2 0 011.88-2.09 1.83 1.83 0 011.86 2.09v8.95a.75.75 0 00.76.73h1.43a.75.75 0 00.75-.73v-9.79a3.66 3.66 0 00-3.45-3.87M145.42 39.62a1.78 1.78 0 011.88 1.88.75.75 0 00.75.73h1.43a.75.75 0 00.76-.73 4.52 4.52 0 00-4.82-4.5 4.58 4.58 0 00-4.82 4.58v5.65a4.83 4.83 0 009.64 0V47a.75.75 0 00-.76-.72h-1.43a.74.74 0 00-.75.72v.21a1.85 1.85 0 01-1.88 2 1.88 1.88 0 01-1.88-2V41.6a1.88 1.88 0 011.88-2M167.08 51.07a2.62 2.62 0 112.61-2.63 2.62 2.62 0 01-2.61 2.63m0-5.56a2.94 2.94 0 102.92 2.93 3 3 0 00-2.92-2.93"/><path class="cls-4" d="M167.57 47.71a.42.42 0 01-.45.42h-.48V47h.48a.43.43 0 01.45.42zm.16.69a.68.68 0 00.52-.73v-.38a.87.87 0 00-.86-.86h-1.26a.19.19 0 00-.19.18v3.64a.19.19 0 00.19.18h.36a.18.18 0 00.19-.18v-1.57h.5c.29 0 .39.2.39.45v1.12a.18.18 0 00.18.18h.37a.18.18 0 00.18-.18v-1.11a.69.69 0 00-.57-.74M118.78 47.15a2 2 0 01-1.87 2.08 1.83 1.83 0 01-1.85-2.08V42a1.85 1.85 0 011.85-2.09 2 2 0 011.87 2.09zM121 32.93h-1.43a.75.75 0 00-.76.73V39a3.2 3.2 0 00-3.07-2 3.69 3.69 0 00-3.59 3.59V48a3.73 3.73 0 003.59 3.86 3.19 3.19 0 003.07-2v.83a.75.75 0 00.76.73H121a.75.75 0 00.76-.73v-17a.75.75 0 00-.76-.73M108.76 32.93h-1.43a.75.75 0 00-.76.73v17a.75.75 0 00.76.73h1.43a.75.75 0 00.75-.73v-17a.75.75 0 00-.75-.73M96.57 44.83l1.9-8.64 1.91 8.64zm8.18 5.57l-3.93-17a.6.6 0 00-.6-.47h-3.49a.6.6 0 00-.6.47l-3.93 17a3.57 3.57 0 00-.08.45.55.55 0 00.58.54h1.92c.31 0 .5-.26.58-.57l.8-3.28h5l.78 3.28c.08.31.27.57.58.57h1.92a.56.56 0 00.58-.54 3.57 3.57 0 00-.08-.45"/></svg>